<svg xmlns="http://www.w3.org/2000/svg"  viewBox="0 0 468 468" width="40px" height="40px"><path d="M153.606,284.432H67.414c-6.627,0-12-5.373-12-12v-86.006c0-6.627,5.373-12,12-12h86.192c6.627,0,12,5.373,12,12v86.006 C165.606,279.059,160.233,284.432,153.606,284.432z M79.414,260.432h62.192v-62.006H79.414V260.432z"/><ellipse cx="178.964" cy="352.294" rx="13.977" ry="13.967"/><path d="M337.617,20H31.967C14.34,20,0,34.334,0,51.953v279.939c0,17.618,14.34,31.952,31.967,31.952h93.886 c6.627,0,12-5.373,12-12c0-6.627-5.373-12-12-12H31.967c-4.393,0-7.967-3.567-7.967-7.952V118.74h321.584v53.851 c0,6.627,5.373,12,12,12s12-5.373,12-12V51.953C369.584,34.334,355.244,20,337.617,20z"/><path d="M348.196,208.572c-16.026,0-31.313,3.152-45.286,8.857h-94.148c-6.627,0-12,5.373-12,12c0,6.627,5.373,12,12,12h56.99 c-23.009,21.815-37.36,52.66-37.36,86.856c0,66.116,53.638,119.714,119.804,119.714S468,394.402,468,328.286 S414.362,208.572,348.196,208.572z M413.888,359.298c-2.816,6.048-10.078,8.54-15.932,5.759l-55.064-25.789 c-4.208-1.972-6.896-6.196-6.896-10.84v-50.034c0-6.611,5.364-11.971,11.98-11.971c6.616,0,11.98,5.36,11.98,11.971v42.424 l48.168,22.559C414.115,346.184,416.696,353.311,413.888,359.298z"/></svg>